<svg width="32" height="32" viewBox="0 0 32 32" fill="none" xmlns="http://www.w3.org/2000/svg">
<g clip-path="url(#clip0_219_302)">
<path d="M22.0313 23.2444V25.3741C22.0313 26.763 20.9055 27.8888 19.5166 27.8888H11.2588C9.86992 27.8888 8.74414 26.763 8.74414 25.3741V7.07326C8.74414 5.68437 9.86992 4.55859 11.2588 4.55859H19.5164C20.9053 4.55859 22.031 5.68437 22.031 7.07326V11.9688" stroke="black" stroke-width="2" stroke-miterlimit="10" stroke-linecap="round" stroke-linejoin="round"/>
<path d="M8.74414 7.11104V7.07326C8.74414 5.68437 9.86992 4.55859 11.2588 4.55859H19.5164C20.9053 4.55859 22.031 5.68437 22.031 7.07326V7.11104H8.74414Z" stroke="black" stroke-width="2" stroke-miterlimit="10" stroke-linecap="round" stroke-linejoin="round"/>
<path opacity="0.3" d="M8.70703 7.11104V7.07326C8.70703 5.68437 9.83281 4.55859 11.2217 4.55859H19.4793C20.8681 4.55859 21.9939 5.68437 21.9939 7.07326V7.11104H8.70703Z" fill="black"/>
<path d="M22.0313 25.3367V25.3744C22.0313 26.7633 20.9055 27.8891 19.5166 27.8891H11.2588C9.86992 27.8891 8.74414 26.7633 8.74414 25.3744V25.3367H22.0313Z" stroke="black" stroke-width="2" stroke-miterlimit="10" stroke-linecap="round" stroke-linejoin="round"/>
<path opacity="0.3" d="M22.0313 25.3367V25.3744C22.0313 26.7633 20.9055 27.8891 19.5166 27.8891H11.2588C9.86992 27.8891 8.74414 26.7633 8.74414 25.3744V25.3367H22.0313Z" fill="black"/>
<path d="M14.2095 26.7498H16.5655" stroke="black" stroke-width="2" stroke-miterlimit="10" stroke-linecap="round" stroke-linejoin="round"/>
<path d="M14.2095 5.83472H16.5655" stroke="black" stroke-width="2" stroke-miterlimit="10" stroke-linecap="round" stroke-linejoin="round"/>
<path d="M2.11743 11.2278V13.7011" stroke="black" stroke-width="2" stroke-miterlimit="10" stroke-linecap="round" stroke-linejoin="round"/>
<path d="M3.50158 12.4644H0.73291" stroke="black" stroke-width="2" stroke-miterlimit="10" stroke-linecap="round" stroke-linejoin="round"/>
<path d="M5.1543 17.2922V18.9498" stroke="black" stroke-width="2" stroke-miterlimit="10" stroke-linecap="round" stroke-linejoin="round"/>
<path d="M5.98324 18.1208H4.32568" stroke="black" stroke-width="2" stroke-miterlimit="10" stroke-linecap="round" stroke-linejoin="round"/>
<path d="M30.1208 16.3066L30.9964 15.9268L30.1013 13.8631L29.0942 14.2997C28.7217 13.8073 28.3226 13.4404 27.8886 13.1504L28.2753 12.076L26.1493 11.2173L25.7464 12.2313C25.1235 12.1286 24.4475 12.1346 23.8424 12.2468L23.4539 11.3515L21.5277 12.1868L21.9162 13.0822C21.1455 13.5666 20.8519 13.9675 20.5011 14.4926L19.4275 14.1055L18.5693 16.2313L19.6266 16.7335C19.5417 17.2484 19.5257 17.7957 19.6308 18.404L18.5439 18.8753L19.4391 20.9391L20.3946 20.5246C20.7988 21.1666 21.3044 21.6371 21.9182 22.0473L21.4946 23.0366L23.6022 23.8526L24.0935 22.7751C24.7164 22.8777 25.2055 22.9275 26.0859 22.696L26.5404 23.7437L28.4666 22.9084L28.0122 21.8606C28.5077 21.4955 28.9788 21.0175 29.3297 20.4926L30.3544 20.9008L31.1882 18.7857L30.1924 18.4588C30.3126 17.7304 30.3135 17.0404 30.1208 16.3066ZM26.1639 20.6142C24.4531 21.3562 22.4648 20.5708 21.7228 18.86C20.9808 17.1491 21.7662 15.1608 23.4771 14.4188C25.1879 13.6768 27.1762 14.4622 27.9182 16.1731C28.6602 17.8837 27.8748 19.8722 26.1639 20.6142Z" stroke="black" stroke-width="2" stroke-miterlimit="10" stroke-linecap="round" stroke-linejoin="round"/>
<path opacity="0.3" d="M30.1455 16.3252L31.021 15.9454L30.1259 13.8816L29.1188 14.3183C28.7464 13.8258 28.3473 13.459 27.9133 13.169L28.2999 12.0945L26.1739 11.2358L25.771 12.2498C25.1482 12.1472 24.4722 12.1532 23.867 12.2654L23.4786 11.3701L21.5524 12.2054L21.9408 13.1007C21.1702 13.5852 20.8766 13.9861 20.5257 14.5112L19.4522 14.1241L18.5939 16.2498L19.6513 16.7521C19.5664 17.267 19.5504 17.8143 19.6555 18.4225L18.5686 18.8938L19.4637 20.9576L20.4193 20.5432C20.8235 21.1852 21.329 21.6556 21.9428 22.0658L21.5193 23.0552L23.6268 23.8712L24.1182 22.7936C24.741 22.8963 25.2302 22.9461 26.1106 22.7145L26.565 23.7623L28.4913 22.927L28.0368 21.8792C28.5324 21.5141 29.0035 21.0361 29.3544 20.5112L30.379 20.9194L31.2128 18.8043L30.217 18.4774C30.337 17.749 30.3379 17.059 30.1455 16.3252ZM26.1639 20.6143C24.453 21.3563 22.4648 20.571 21.7228 18.8601C20.9808 17.1492 21.7662 15.161 23.477 14.419C25.1879 13.677 27.1762 14.4623 27.9182 16.1732C28.6602 17.8838 27.8748 19.8723 26.1639 20.6143Z" fill="black"/>
<path d="M10.5244 9.90112H18.5244" stroke="black" stroke-width="2" stroke-miterlimit="10" stroke-linecap="round" stroke-linejoin="round"/>
<path d="M10.5244 12.3455H16.08" stroke="black" stroke-width="2" stroke-miterlimit="10" stroke-linecap="round" stroke-linejoin="round"/>
<path d="M27.8767 6.32373V8.79706" stroke="black" stroke-width="2" stroke-miterlimit="10" stroke-linecap="round" stroke-linejoin="round"/>
<path d="M29.2609 7.5603H26.4922" stroke="black" stroke-width="2" stroke-miterlimit="10" stroke-linecap="round" stroke-linejoin="round"/>
</g>
<defs>
<clipPath id="clip0_219_302">
<rect width="32" height="32" fill="white"/>
</clipPath>
</defs>
</svg>
