<svg width="29" height="32" viewBox="0 0 29 32" fill="none" xmlns="http://www.w3.org/2000/svg">
<path d="M2.71875 25C1.96799 25 1.35938 24.3284 1.35938 23.5C1.35938 22.6716 1.96799 22 2.71875 22C3.46951 22 4.07812 22.6716 4.07812 23.5C4.07812 24.3284 3.46951 25 2.71875 25Z" fill="black"/>
<path d="M7.70312 30.5C6.95236 30.5 6.34375 29.8284 6.34375 29C6.34375 28.1716 6.95236 27.5 7.70312 27.5C8.45389 27.5 9.0625 28.1716 9.0625 29C9.0625 29.8284 8.45389 30.5 7.70312 30.5Z" fill="black"/>
<path d="M14.5 29.5C13.7492 29.5 13.1406 28.8284 13.1406 28C13.1406 27.1716 13.7492 26.5 14.5 26.5C15.2508 26.5 15.8594 27.1716 15.8594 28C15.8594 28.8284 15.2508 29.5 14.5 29.5Z" fill="black"/>
<path d="M21.2969 30.5C20.5461 30.5 19.9375 29.8284 19.9375 29C19.9375 28.1716 20.5461 27.5 21.2969 27.5C22.0476 27.5 22.6562 28.1716 22.6562 29C22.6562 29.8284 22.0476 30.5 21.2969 30.5Z" fill="black"/>
<path d="M26.2812 25C25.5305 25 24.9219 24.3284 24.9219 23.5C24.9219 22.6716 25.5305 22 26.2812 22C27.032 22 27.6406 22.6716 27.6406 23.5C27.6406 24.3284 27.032 25 26.2812 25Z" fill="black"/>
<path d="M8.60938 17.5V19.5C8.60938 19.7652 8.70485 20.0196 8.87481 20.2071C9.04476 20.3946 9.27527 20.5 9.51562 20.5H19.4844C19.7247 20.5 19.9552 20.3946 20.1252 20.2071C20.2951 20.0196 20.3906 19.7652 20.3906 19.5V17.5C20.3906 17.2348 20.2951 16.9804 20.1252 16.7929C19.9552 16.6054 19.7247 16.5 19.4844 16.5H9.51562C9.27527 16.5 9.04476 16.6054 8.87481 16.7929C8.70485 16.9804 8.60938 17.2348 8.60938 17.5Z" fill="black"/>
<path d="M9.51562 12.5H19.4844C19.9849 12.5 20.3906 12.9477 20.3906 13.5V15.5C20.3906 16.0523 19.9849 16.5 19.4844 16.5H9.51562C9.01512 16.5 8.60938 16.0523 8.60938 15.5V13.5C8.60938 12.9477 9.01512 12.5 9.51562 12.5Z" fill="black"/>
<path d="M9.51562 8.5H19.4844C19.9849 8.5 20.3906 8.94772 20.3906 9.5V11.5C20.3906 12.0523 19.9849 12.5 19.4844 12.5H9.51562C9.01512 12.5 8.60938 12.0523 8.60938 11.5V9.5C8.60938 8.94772 9.01512 8.5 9.51562 8.5Z" fill="black"/>
<path d="M5.43744 8.50004C4.35586 8.50004 3.31857 8.97415 2.55378 9.81806C1.78898 10.662 1.35932 11.8066 1.35932 13C1.35932 14.1935 1.78898 15.3381 2.55378 16.182C3.31857 17.0259 4.35586 17.5 5.43744 17.5H8.60932C8.60932 17.2348 8.7048 16.9805 8.87475 16.7929C9.04471 16.6054 9.27522 16.5 9.51557 16.5C9.27522 16.5 9.04471 16.3947 8.87475 16.2071C8.7048 16.0196 8.60932 15.7653 8.60932 15.5V13.5C8.60932 13.2348 8.7048 12.9805 8.87475 12.7929C9.04471 12.6054 9.27522 12.5 9.51557 12.5C9.27522 12.5 9.04471 12.3947 8.87475 12.2071C8.7048 12.0196 8.60932 11.7653 8.60932 11.5V9.50004C8.60932 9.23482 8.7048 8.98047 8.87475 8.79293C9.04471 8.6054 9.27522 8.50004 9.51557 8.50004H19.4843C19.7247 8.50004 19.9552 8.6054 20.1251 8.79293C20.2951 8.98047 20.3906 9.23482 20.3906 9.50004V11.5C20.3906 11.7653 20.2951 12.0196 20.1251 12.2071C19.9552 12.3947 19.7247 12.5 19.4843 12.5C19.7247 12.5 19.9552 12.6054 20.1251 12.7929C20.2951 12.9805 20.3906 13.2348 20.3906 13.5V15.5C20.3906 15.7653 20.2951 16.0196 20.1251 16.2071C19.9552 16.3947 19.7247 16.5 19.4843 16.5C19.7247 16.5 19.9552 16.6054 20.1251 16.7929C20.2951 16.9805 20.3906 17.2348 20.3906 17.5H22.6562C23.3448 17.4992 24.0257 17.3409 24.6561 17.0352C25.2865 16.7295 25.8526 16.283 26.3188 15.7238C26.785 15.1647 27.1412 14.505 27.3648 13.7864C27.5884 13.0678 27.6747 12.3058 27.6182 11.5486C27.5617 10.7913 27.3636 10.0552 27.0364 9.38667C26.7092 8.71812 26.26 8.13162 25.7172 7.66416C25.1744 7.1967 24.5497 6.85842 23.8824 6.67065C23.2152 6.48287 22.52 6.44968 21.8406 6.57317C21.0976 4.88312 19.8941 3.49186 18.3987 2.59427C16.9033 1.69669 15.1909 1.33775 13.5014 1.56774C11.8119 1.79773 10.2299 2.60511 8.97708 3.87681C7.72422 5.1485 6.86324 6.82079 6.51475 8.65942C6.16377 8.55312 5.8014 8.49951 5.43744 8.50004Z" fill="black"/>
<path d="M14.4999 1.5C13.8899 1.49947 13.2818 1.57431 12.6869 1.72313C13.8785 2.02368 14.9939 2.61545 15.9507 3.45484C16.9076 4.29422 17.6815 5.35983 18.2156 6.57313C19.4738 6.34329 20.764 6.65427 21.8207 7.44211C22.8775 8.22994 23.6204 9.43471 23.8967 10.8086C24.173 12.1824 23.9617 13.6209 23.3061 14.828C22.6505 16.0351 21.6007 16.9191 20.3724 17.2981C20.3845 17.3646 20.3906 17.4322 20.3906 17.5H22.6562C23.3448 17.4992 24.0257 17.3409 24.6561 17.0352C25.2865 16.7295 25.8526 16.283 26.3188 15.7238C26.785 15.1646 27.1412 14.5049 27.3648 13.7863C27.5884 13.0677 27.6747 12.3058 27.6182 11.5485C27.5617 10.7913 27.3636 10.0552 27.0364 9.38663C26.7092 8.71808 26.26 8.13158 25.7172 7.66412C25.1744 7.19666 24.5497 6.85838 23.8824 6.67061C23.2152 6.48284 22.52 6.44964 21.8406 6.57313C21.1722 5.05218 20.1292 3.76966 18.831 2.87245C17.5328 1.97524 16.0318 1.4996 14.4999 1.5ZM7.24994 12.5C7.00959 12.5 6.77908 12.6054 6.60913 12.7929C6.43917 12.9804 6.34369 13.2348 6.34369 13.5V15.5C6.34369 15.7652 6.43917 16.0196 6.60913 16.2071C6.77908 16.3946 7.00959 16.5 7.24994 16.5C7.0139 16.4999 6.78715 16.6015 6.61799 16.7831C6.44882 16.9648 6.35061 17.2121 6.34426 17.4725C6.49454 17.4908 6.64562 17.5 6.79682 17.5H8.60932C8.60932 17.2348 8.7048 16.9804 8.87475 16.7929C9.04471 16.6054 9.27522 16.5 9.51557 16.5C9.27522 16.5 9.04471 16.3946 8.87475 16.2071C8.7048 16.0196 8.60932 15.7652 8.60932 15.5V13.5C8.60932 13.2348 8.7048 12.9804 8.87475 12.7929C9.04471 12.6054 9.27522 12.5 9.51557 12.5C9.27522 12.5 9.04471 12.3946 8.87475 12.2071C8.7048 12.0196 8.60932 11.7652 8.60932 11.5V9.5C8.60932 9.23479 8.7048 8.98043 8.87475 8.7929C9.04471 8.60536 9.27522 8.5 9.51557 8.5C9.51557 8.5 7.36832 8.53438 7.10438 8.5125C6.89198 8.55064 6.69881 8.67094 6.55944 8.85187C6.42006 9.0328 6.34359 9.26255 6.34369 9.5V11.5C6.34369 11.7652 6.43917 12.0196 6.60913 12.2071C6.77908 12.3946 7.00959 12.5 7.24994 12.5Z" fill="black"/>
<path d="M19.0312 10H13.5938V11H19.0312V10ZM12.6875 10H11.7812V11H12.6875V10ZM10.875 10H9.96875V11H10.875V10ZM19.0312 14H13.5938V15H19.0312V14ZM12.6875 14H11.7812V15H12.6875V14ZM10.875 14H9.96875V15H10.875V14ZM19.0312 18H13.5938V19H19.0312V18ZM12.6875 18H11.7812V19H12.6875V18ZM10.875 18H9.96875V19H10.875V18Z" fill="black"/>
<path d="M2.71875 21.4999C3.12046 21.5005 3.51067 21.648 3.82826 21.9195C4.14586 22.1909 4.37291 22.5709 4.47388 22.9999H9.51563V20.9999C9.15523 20.9995 8.80971 20.8413 8.55487 20.5601C8.30003 20.2789 8.15667 19.8976 8.15625 19.4999V17.9999H5.4375C4.81149 17.9994 4.19237 17.8558 3.61917 17.5781C3.04597 17.3004 2.53114 16.8947 2.10714 16.3865C1.68314 15.8782 1.35917 15.2786 1.15567 14.6254C0.952158 13.9721 0.873528 13.2794 0.924732 12.591C0.975935 11.9025 1.15586 11.2332 1.45317 10.6253C1.75048 10.0174 2.15871 9.4841 2.65212 9.05898C3.14554 8.63386 3.71343 8.32616 4.31999 8.1553C4.92655 7.98444 5.55861 7.95412 6.17632 8.06624C6.61959 6.2211 7.55621 4.56605 8.86417 3.31674C10.1721 2.06742 11.7908 1.28177 13.5092 1.06214C15.2276 0.842504 16.9661 1.19908 18.4983 2.0854C20.0304 2.97172 21.2851 4.3467 22.0988 6.03118C22.2841 6.01038 22.4701 5.99995 22.6563 5.99993C24.0984 5.99993 25.4814 6.63207 26.5011 7.75729C27.5209 8.88251 28.0938 10.4086 28.0938 11.9999C28.0938 13.5912 27.5209 15.1174 26.5011 16.2426C25.4814 17.3678 24.0984 17.9999 22.6563 17.9999H20.8438V19.4999C20.8433 19.8976 20.7 20.2789 20.4451 20.5601C20.1903 20.8413 19.8448 20.9995 19.4844 20.9999V22.9999H24.5261C24.6364 22.5286 24.8987 22.1178 25.2638 21.8446C25.6289 21.5714 26.0718 21.4545 26.5095 21.5159C26.9471 21.5772 27.3494 21.8126 27.6411 22.1778C27.9327 22.5431 28.0936 23.0131 28.0936 23.4999C28.0936 23.9867 27.9327 24.4568 27.6411 24.822C27.3494 25.1873 26.9471 25.4227 26.5095 25.484C26.0718 25.5453 25.6289 25.4284 25.2638 25.1552C24.8987 24.882 24.6364 24.4713 24.5261 23.9999H19.0313C18.9111 23.9999 18.7958 23.9473 18.7108 23.8535C18.6259 23.7597 18.5781 23.6325 18.5781 23.4999V20.9999H17.6719V24.9999H21.2969C21.4171 24.9999 21.5323 25.0526 21.6173 25.1464C21.7023 25.2401 21.75 25.3673 21.75 25.4999V27.0632C22.1771 27.1849 22.5494 27.4744 22.797 27.8772C23.0446 28.2801 23.1505 28.7688 23.0949 29.2517C23.0393 29.7346 22.8261 30.1786 22.495 30.5004C22.164 30.8222 21.738 30.9997 21.2969 30.9997C20.8557 30.9997 20.4297 30.8222 20.0987 30.5004C19.7677 30.1786 19.5544 29.7346 19.4988 29.2517C19.4432 28.7688 19.5492 28.2801 19.7968 27.8772C20.0444 27.4744 20.4166 27.1849 20.8438 27.0632V25.9999H17.2188C17.0986 25.9999 16.9833 25.9473 16.8983 25.8535C16.8134 25.7597 16.7656 25.6325 16.7656 25.4999V20.9999H14.9531V26.0632C15.3803 26.1849 15.7525 26.4744 16.0001 26.8772C16.2477 27.2801 16.3536 27.7688 16.2981 28.2517C16.2425 28.7346 16.0292 29.1786 15.6982 29.5004C15.3672 29.8222 14.9412 29.9997 14.5 29.9997C14.0589 29.9997 13.6328 29.8222 13.3018 29.5004C12.9708 29.1786 12.7575 28.7346 12.7019 28.2517C12.6464 27.7688 12.7523 27.2801 12.9999 26.8772C13.2475 26.4744 13.6197 26.1849 14.0469 26.0632V20.9999H12.2344V25.4999C12.2344 25.6325 12.1866 25.7597 12.1017 25.8535C12.0167 25.9473 11.9014 25.9999 11.7813 25.9999H8.15625V27.0632C8.58339 27.1849 8.95565 27.4744 9.20324 27.8772C9.45083 28.2801 9.55677 28.7688 9.50118 29.2517C9.44559 29.7346 9.23231 30.1786 8.90129 30.5004C8.57028 30.8222 8.14428 30.9997 7.70313 30.9997C7.26198 30.9997 6.83597 30.8222 6.50496 30.5004C6.17395 30.1786 5.96066 29.7346 5.90507 29.2517C5.84949 28.7688 5.95542 28.2801 6.20301 27.8772C6.4506 27.4744 6.82286 27.1849 7.25 27.0632V25.4999C7.25 25.3673 7.29774 25.2401 7.38272 25.1464C7.4677 25.0526 7.58295 24.9999 7.70313 24.9999H11.3281V20.9999H10.4219V23.4999C10.4219 23.6325 10.3741 23.7597 10.2892 23.8535C10.2042 23.9473 10.0889 23.9999 9.96875 23.9999H4.47388C4.38913 24.3621 4.21403 24.6908 3.96847 24.9487C3.72291 25.2066 3.41674 25.3833 3.08472 25.4588C2.75271 25.5343 2.40816 25.5055 2.09022 25.3758C1.77227 25.246 1.49368 25.0205 1.28608 24.7248C1.07847 24.429 0.950188 24.075 0.915787 23.7029C0.881386 23.3308 0.942249 22.9555 1.09147 22.6196C1.24068 22.2837 1.47227 22.0007 1.75992 21.8028C2.04757 21.6049 2.37976 21.5 2.71875 21.4999ZM26.2813 24.4999C26.4605 24.4999 26.6357 24.4413 26.7847 24.3314C26.9338 24.2215 27.0499 24.0653 27.1185 23.8826C27.1871 23.6999 27.2051 23.4988 27.1701 23.3048C27.1351 23.1109 27.0488 22.9327 26.9221 22.7928C26.7953 22.653 26.6338 22.5577 26.4581 22.5191C26.2823 22.4806 26.1 22.5004 25.9344 22.5761C25.7688 22.6517 25.6273 22.7799 25.5277 22.9444C25.4282 23.1088 25.375 23.3022 25.375 23.4999C25.3753 23.7651 25.4709 24.0192 25.6407 24.2067C25.8106 24.3942 26.041 24.4996 26.2813 24.4999ZM20.3906 28.9999C20.3906 29.1977 20.4438 29.3911 20.5434 29.5555C20.6429 29.72 20.7845 29.8481 20.9501 29.9238C21.1157 29.9995 21.2979 30.0193 21.4737 29.9807C21.6495 29.9421 21.8109 29.8469 21.9377 29.707C22.0644 29.5672 22.1507 29.389 22.1857 29.195C22.2207 29.001 22.2027 28.8 22.1341 28.6172C22.0655 28.4345 21.9494 28.2783 21.8004 28.1685C21.6513 28.0586 21.4761 27.9999 21.2969 27.9999C21.0566 28.0002 20.8263 28.1057 20.6564 28.2932C20.4865 28.4806 20.3909 28.7348 20.3906 28.9999ZM13.5938 27.9999C13.5938 28.1977 13.6469 28.3911 13.7465 28.5555C13.8461 28.72 13.9876 28.8481 14.1532 28.9238C14.3188 28.9995 14.501 29.0193 14.6768 28.9807C14.8526 28.9421 15.0141 28.8469 15.1408 28.707C15.2676 28.5672 15.3539 28.389 15.3888 28.195C15.4238 28.001 15.4059 27.8 15.3373 27.6172C15.2687 27.4345 15.1525 27.2783 15.0035 27.1685C14.8545 27.0586 14.6792 26.9999 14.5 26.9999C14.2597 27.0002 14.0294 27.1057 13.8595 27.2932C13.6896 27.4806 13.594 27.7348 13.5938 27.9999ZM6.79688 28.9999C6.79688 29.1977 6.85003 29.3911 6.94961 29.5555C7.04919 29.72 7.19073 29.8481 7.35632 29.9238C7.52192 29.9995 7.70413 30.0193 7.87993 29.9807C8.05572 29.9421 8.2172 29.8469 8.34394 29.707C8.47068 29.5672 8.557 29.389 8.59196 29.195C8.62693 29.001 8.60898 28.8 8.54039 28.6172C8.4718 28.4345 8.35564 28.2783 8.20661 28.1685C8.05758 28.0586 7.88237 27.9999 7.70313 27.9999C7.46286 28.0002 7.23252 28.1057 7.06262 28.2932C6.89273 28.4806 6.79716 28.7348 6.79688 28.9999ZM19.9375 11.4999V9.49993C19.9374 9.36737 19.8896 9.24028 19.8046 9.14654C19.7197 9.05281 19.6045 9.00008 19.4844 8.99993H9.51563C9.39549 9.00008 9.28032 9.05281 9.19537 9.14654C9.11042 9.24028 9.06264 9.36737 9.0625 9.49993V11.4999C9.06264 11.6325 9.11042 11.7596 9.19537 11.8533C9.28032 11.9471 9.39549 11.9998 9.51563 11.9999H19.4844C19.6045 11.9998 19.7197 11.9471 19.8046 11.8533C19.8896 11.7596 19.9374 11.6325 19.9375 11.4999ZM19.9375 15.4999V13.4999C19.9374 13.3674 19.8896 13.2403 19.8046 13.1465C19.7197 13.0528 19.6045 13.0001 19.4844 12.9999H9.51563C9.39549 13.0001 9.28032 13.0528 9.19537 13.1465C9.11042 13.2403 9.06264 13.3674 9.0625 13.4999V15.4999C9.06264 15.6325 9.11042 15.7596 9.19537 15.8533C9.28032 15.9471 9.39549 15.9998 9.51563 15.9999H19.4844C19.6045 15.9998 19.7197 15.9471 19.8046 15.8533C19.8896 15.7596 19.9374 15.6325 19.9375 15.4999ZM27.1875 11.9999C27.1861 10.6743 26.7083 9.40342 25.8588 8.46606C25.0093 7.5287 23.8576 7.00144 22.6563 6.99993C22.4077 6.99987 22.1595 7.02211 21.9143 7.06643C21.8179 7.08405 21.7189 7.06679 21.6321 7.01723C21.5453 6.96766 21.4754 6.88845 21.4328 6.79143C20.7312 5.19525 19.5946 3.88124 18.1823 3.03347C16.77 2.18569 15.1528 1.84661 13.5572 2.06373C11.9615 2.28085 10.4674 3.0433 9.28408 4.24426C8.10076 5.44522 7.28753 7.02454 6.9583 8.76099C6.9457 8.82792 6.92079 8.89128 6.88512 8.94717C6.84946 9.00306 6.80378 9.05028 6.75092 9.08592C6.69806 9.12156 6.63914 9.14487 6.5778 9.15439C6.51646 9.16392 6.454 9.15947 6.39428 9.14131C5.89586 8.99107 5.37409 8.96014 4.86396 9.05059C4.35382 9.14104 3.86711 9.35077 3.43643 9.66574C3.00575 9.9807 2.64107 10.3936 2.36683 10.8768C2.09258 11.36 1.91512 11.9023 1.84632 12.4673C1.77753 13.0324 1.819 13.6071 1.96795 14.1531C2.1169 14.699 2.36989 15.2035 2.70996 15.6327C3.05004 16.0619 3.46933 16.406 3.93975 16.6418C4.41016 16.8776 4.92082 16.9997 5.4375 16.9999H8.23419C8.29356 16.8155 8.38505 16.6456 8.50352 16.4999C8.27973 16.2254 8.15602 15.8692 8.15625 15.4999V13.4999C8.15602 13.1307 8.27973 12.7744 8.50352 12.4999C8.27973 12.2254 8.15602 11.8692 8.15625 11.4999V9.49993C8.15667 9.10225 8.30003 8.72099 8.55487 8.43978C8.80971 8.15858 9.15523 8.00039 9.51563 7.99993H19.4844C19.8448 8.00039 20.1903 8.15858 20.4451 8.43978C20.7 8.72099 20.8433 9.10225 20.8438 9.49993V11.4999C20.844 11.8692 20.7203 12.2254 20.4965 12.4999C20.7203 12.7744 20.844 13.1307 20.8438 13.4999V15.4999C20.844 15.8692 20.7203 16.2254 20.4965 16.4999C20.6149 16.6456 20.7064 16.8155 20.7658 16.9999H22.6563C23.8576 16.9984 25.0093 16.4712 25.8588 15.5338C26.7083 14.5964 27.1861 13.3256 27.1875 11.9999ZM19.9375 19.4999V17.4999C19.9374 17.3674 19.8896 17.2403 19.8046 17.1465C19.7197 17.0528 19.6045 17.0001 19.4844 16.9999H9.51563C9.39549 17.0001 9.28032 17.0528 9.19537 17.1465C9.11042 17.2403 9.06264 17.3674 9.0625 17.4999V19.4999C9.06264 19.6325 9.11042 19.7596 9.19537 19.8533C9.28032 19.9471 9.39549 19.9998 9.51563 19.9999H19.4844C19.6045 19.9998 19.7197 19.9471 19.8046 19.8533C19.8896 19.7596 19.9374 19.6325 19.9375 19.4999ZM2.71875 24.4999C2.89799 24.4999 3.07321 24.4413 3.22224 24.3314C3.37127 24.2215 3.48742 24.0653 3.55602 23.8826C3.62461 23.6999 3.64256 23.4988 3.60759 23.3048C3.57262 23.1109 3.48631 22.9327 3.35957 22.7928C3.23283 22.653 3.07135 22.5577 2.89555 22.5191C2.71976 22.4806 2.53754 22.5004 2.37195 22.5761C2.20635 22.6517 2.06481 22.7799 1.96523 22.9444C1.86565 23.1088 1.8125 23.3022 1.8125 23.4999C1.81279 23.7651 1.90836 24.0192 2.07825 24.2067C2.24814 24.3942 2.47849 24.4996 2.71875 24.4999Z" fill="black"/>
</svg>
